<?xml version="1.0" encoding="utf-8"?>
<!-- Generator: Adobe Illustrator 25.0.0, SVG Export Plug-In . SVG Version: 6.00 Build 0)  -->
<svg version="1.1" xmlns="http://www.w3.org/2000/svg" xmlns:xlink="http://www.w3.org/1999/xlink" x="0px" y="0px"
	 viewBox="0 0 500 500" style="enable-background:new 0 0 500 500;" xml:space="preserve">
<style type="text/css">
	.st0{display:none;}
	.st1{fill:#E6CE8F;}
	.st2{fill:#FFFAF0;}
	.st3{fill:#EFEBE4;}
	.st4{fill:#50892E;}
	.st5{fill:#B7361C;}
	.st6{fill:#D5421D;}
	.st7{fill:#5CA835;}
	.st8{fill:#272727;}
	.st9{fill:#A3A5A2;}
	.st10{fill:#C4AE7E;}
</style>
<g id="dessin_logo" class="st0">
	
		<image style="display:inline;overflow:visible;" width="3024" height="4032" xlink:href="logo pepper.jpg"  transform="matrix(0.1933 0 0 0.1933 -71.6 -74.4606)">
	</image>
</g>
<g id="pied_transat">
	<path class="st1" d="M47.9,362.2v48c7.4,3.1,15.4,3.9,24.4,0l1.7-44.3L47.9,362.2z"/>
	<path class="st1" d="M228.8,376.9v48c7.4,3.1,15.4,3.9,24.4,0l1.7-44.3L228.8,376.9z"/>
	<path class="st1" d="M384.4,308.2v48c7.4,3.1,15.4,3.9,24.4,0l1.7-44.3L384.4,308.2z"/>
</g>
<g id="transat">
	<path class="st2" d="M42,346.4c56.9,17.7,127.1,20.9,205,15.8c44.2-20.2,97.4-38.9,155.1-56.9c7.1-34.7,30.9-87,57.6-142.4
		c-64.4-24-129.7-32.4-195.7-26.5l-38.6,118.7C163.6,278.3,102.5,309.9,42,346.4z"/>
	<path class="st2" d="M42,346.4v12c0,6.4,4.9,11.8,11.3,12.4l188.8,16.6c1.9,0.2,3.9-0.1,5.7-0.8l157-62.9c3-1.2,5.4-3.6,6.8-6.5
		L465,195.7c1.1-2.5,1.3-5.3,0.7-7.9l-6-24.9c-27.3,50.6-50.7,99.7-57.6,142.4c-56.2,15.9-109,34.2-155.1,56.9L42,346.4z"/>
</g>
<g id="ombre_transat">
	<path class="st3" d="M42,346.4c72.3,20.2,140,20.7,206.1,15.3C179.4,366.8,110.7,361.7,42,346.4z"/>
	<path class="st3" d="M248.1,361.7c46.9-20.9,98.8-39.5,154-56.4C347.2,319.3,295.4,337.5,248.1,361.7z"/>
	<path class="st3" d="M402.1,305.3c-51.1-9.9-112-28.5-176.2-51.2L402.1,305.3z"/>
	<path class="st3" d="M402.1,305.3c8.8-38.5,31.5-88.9,57.6-142.4C431.5,214.3,407.8,263.6,402.1,305.3z"/>
</g>
<g id="bras">
	<polygon class="st4" points="197.3,252.9 169.1,257.9 166.1,250 168.5,247.7 197.3,242.9 	"/>
</g>
<g id="manche_pancarte">
	<path class="st5" d="M139.4,279.3l-0.8,10.2c-0.1,1.3,0.9,2.4,2.2,2.4h19.5c1.2,0,2.1-0.9,2.2-2l10.3-106.2l-19.6-1.3L139.4,279.3z
		"/>
</g>
<g id="pancarte">
	<path class="st6" d="M44.2,84.9c3.9,31.5,4.6,67.5,3.8,105.6c-0.1,3,2.5,5.4,5.5,5c65.2-7.6,134.4-7.8,205.4-4.8
		c2.6,0.1,4.9-1.9,5.2-4.5c3.1-33.3,8.3-66.5,15.7-99.5c0.7-3-1.5-5.9-4.6-6.1c-74-4.2-149.5-4.5-226.4-1.3
		C46,79.4,43.8,82,44.2,84.9z"/>
</g>
<g id="ecriture_panneau">
	<g>
		<path d="M72.6,121.2h-7.4v25.5h-4.1v-25.5h-7.3V117h18.8V121.2z"/>
		<path d="M84.4,135.3h-4.6v11.4h-4.1V117H84c2.7,0,4.9,0.8,6.3,2.3c1.5,1.5,2.2,3.8,2.2,6.7c0,2-0.4,3.6-1.2,5
			c-0.8,1.3-1.8,2.4-3.2,3.1l5.3,12.4v0.3h-4.4L84.4,135.3z M79.8,131.1H84c1.4,0,2.5-0.4,3.3-1.3c0.8-0.9,1.2-2.1,1.2-3.6
			c0-1.6-0.4-2.8-1.1-3.7c-0.7-0.9-1.8-1.3-3.2-1.3h-4.4V131.1z"/>
		<path d="M103.3,133.9l-2.7,3.6v9.2h-4.1V117h4.1v13.9l2.3-3.5l7-10.4h5l-8.8,13.1l9.3,16.5h-4.9L103.3,133.9z"/>
		<path d="M121.7,142.5h10.8v4.1h-14.9V117h4.1V142.5z"/>
		<path d="M148.1,135.7v11H144V117h9.1c2.7,0,4.8,0.9,6.3,2.6c1.6,1.7,2.3,4,2.3,6.9c0,2.9-0.8,5.2-2.3,6.8
			c-1.5,1.6-3.7,2.4-6.4,2.4H148.1z M148.1,131.5h5c1.5,0,2.6-0.4,3.4-1.3c0.8-0.9,1.2-2.1,1.2-3.7c0-1.6-0.4-2.9-1.2-3.8
			c-0.8-1-1.9-1.4-3.2-1.5h-5.1V131.5z"/>
		<path d="M179.2,133.4h-9.8v9.1h11.4v4.1h-15.5V117h15.4v4.2h-11.3v8.2h9.8V133.4z"/>
		<path d="M188.4,135.7v11h-4.1V117h9.1c2.7,0,4.8,0.9,6.3,2.6c1.6,1.7,2.3,4,2.3,6.9c0,2.9-0.8,5.2-2.3,6.8
			c-1.5,1.6-3.7,2.4-6.4,2.4H188.4z M188.4,131.5h5c1.5,0,2.6-0.4,3.4-1.3c0.8-0.9,1.2-2.1,1.2-3.7c0-1.6-0.4-2.9-1.2-3.8
			c-0.8-1-1.9-1.4-3.2-1.5h-5.1V131.5z"/>
		<path d="M209.7,135.7v11h-4.1V117h9.1c2.7,0,4.8,0.9,6.3,2.6c1.6,1.7,2.3,4,2.3,6.9c0,2.9-0.8,5.2-2.3,6.8
			c-1.5,1.6-3.7,2.4-6.4,2.4H209.7z M209.7,131.5h5c1.5,0,2.6-0.4,3.4-1.3c0.8-0.9,1.2-2.1,1.2-3.7c0-1.6-0.4-2.9-1.2-3.8
			c-0.8-1-1.9-1.4-3.2-1.5h-5.1V131.5z"/>
		<path d="M240.8,133.4h-9.8v9.1h11.4v4.1h-15.5V117h15.4v4.2h-11.3v8.2h9.8V133.4z"/>
		<path d="M254.6,135.3H250v11.4h-4.1V117h8.4c2.7,0,4.9,0.8,6.3,2.3c1.5,1.5,2.2,3.8,2.2,6.7c0,2-0.4,3.6-1.2,5
			c-0.8,1.3-1.8,2.4-3.2,3.1l5.3,12.4v0.3h-4.4L254.6,135.3z M250,131.1h4.2c1.4,0,2.5-0.4,3.3-1.3c0.8-0.9,1.2-2.1,1.2-3.6
			c0-1.6-0.4-2.8-1.1-3.7c-0.7-0.9-1.8-1.3-3.2-1.3H250V131.1z"/>
	</g>
	<g>
		<path class="st2" d="M73.3,118.2h-7.4v25.5h-4.1v-25.5h-7.3V114h18.8V118.2z"/>
		<path class="st2" d="M85.1,132.3h-4.6v11.4h-4.1V114h8.4c2.7,0,4.9,0.8,6.3,2.3c1.5,1.5,2.2,3.8,2.2,6.7c0,2-0.4,3.6-1.2,5
			c-0.8,1.3-1.8,2.4-3.2,3.1l5.3,12.4v0.3h-4.4L85.1,132.3z M80.5,128.1h4.2c1.4,0,2.5-0.4,3.3-1.3c0.8-0.9,1.2-2.1,1.2-3.6
			c0-1.6-0.4-2.8-1.1-3.7c-0.7-0.9-1.8-1.3-3.2-1.3h-4.4V128.1z"/>
		<path class="st2" d="M104.1,130.9l-2.7,3.6v9.2h-4.1V114h4.1v13.9l2.3-3.5l7-10.4h5l-8.8,13.1l9.3,16.5h-4.9L104.1,130.9z"/>
		<path class="st2" d="M122.4,139.5h10.8v4.1h-14.9V114h4.1V139.5z"/>
		<path class="st2" d="M148.8,132.7v11h-4.1V114h9.1c2.7,0,4.8,0.9,6.3,2.6c1.6,1.7,2.3,4,2.3,6.9c0,2.9-0.8,5.2-2.3,6.8
			c-1.5,1.6-3.7,2.4-6.4,2.4H148.8z M148.8,128.5h5c1.5,0,2.6-0.4,3.4-1.3c0.8-0.9,1.2-2.1,1.2-3.7c0-1.6-0.4-2.9-1.2-3.8
			c-0.8-1-1.9-1.4-3.2-1.5h-5.1V128.5z"/>
		<path class="st2" d="M180,130.4h-9.8v9.1h11.4v4.1h-15.5V114h15.4v4.2h-11.3v8.2h9.8V130.4z"/>
		<path class="st2" d="M189.1,132.7v11H185V114h9.1c2.7,0,4.8,0.9,6.3,2.6c1.6,1.7,2.3,4,2.3,6.9c0,2.9-0.8,5.2-2.3,6.8
			c-1.5,1.6-3.7,2.4-6.4,2.4H189.1z M189.1,128.5h5c1.5,0,2.6-0.4,3.4-1.3c0.8-0.9,1.2-2.1,1.2-3.7c0-1.6-0.4-2.9-1.2-3.8
			c-0.8-1-1.9-1.4-3.2-1.5h-5.1V128.5z"/>
		<path class="st2" d="M210.4,132.7v11h-4.1V114h9.1c2.7,0,4.8,0.9,6.3,2.6c1.6,1.7,2.3,4,2.3,6.9c0,2.9-0.8,5.2-2.3,6.8
			c-1.5,1.6-3.7,2.4-6.4,2.4H210.4z M210.4,128.5h5c1.5,0,2.6-0.4,3.4-1.3c0.8-0.9,1.2-2.1,1.2-3.7c0-1.6-0.4-2.9-1.2-3.8
			c-0.8-1-1.9-1.4-3.2-1.5h-5.1V128.5z"/>
		<path class="st2" d="M241.6,130.4h-9.8v9.1h11.4v4.1h-15.5V114h15.4v4.2h-11.3v8.2h9.8V130.4z"/>
		<path class="st2" d="M255.3,132.3h-4.6v11.4h-4.1V114h8.4c2.7,0,4.9,0.8,6.3,2.3c1.5,1.5,2.2,3.8,2.2,6.7c0,2-0.4,3.6-1.2,5
			c-0.8,1.3-1.8,2.4-3.2,3.1l5.3,12.4v0.3h-4.4L255.3,132.3z M250.7,128.1h4.2c1.4,0,2.5-0.4,3.3-1.3c0.8-0.9,1.2-2.1,1.2-3.6
			c0-1.6-0.4-2.8-1.1-3.7c-0.7-0.9-1.8-1.3-3.2-1.3h-4.4V128.1z"/>
	</g>
</g>
<g id="mr_pepper">
	<ellipse class="st7" cx="279.1" cy="245.8" rx="84.7" ry="71.4"/>
</g>
<g id="lunettes">
	<path class="st8" d="M197.6,225.1c-1.2-10.5,1-21.2,9.4-32.5c0.6-0.7,1.5-1,2.4-0.6c17.9,7.6,36.1,14.3,54.4,19.9
		c0.8,0.2,1.4,0.9,1.4,1.7c0.8,10.7-2.9,19.6-11,26.6c-0.4,0.4-1,0.5-1.5,0.5c-18.8-1.7-37.7-3.5-54.3-14.2
		C198,226.3,197.7,225.7,197.6,225.1z"/>
	<path class="st8" d="M339.1,267.1c6.4-8.2,10.2-18.4,8.9-32.2c-0.1-1.1-0.9-2-2-2.1c-19.1-2.9-37.9-6.7-56.3-11.5
		c-1-0.2-2,0.1-2.6,0.9c-6.1,8.6-7.6,17.9-4.5,28c0.2,0.6,0.6,1.1,1.2,1.4c16.8,8.4,33.7,16.7,53.3,16.4
		C338,268,338.7,267.7,339.1,267.1z"/>
	<path class="st8" d="M264.1,225.7c7.1-3.1,13.4-1.7,18.8,4.8l1-2.4c-5.2-8.4-11.7-9.2-19-5.6L264.1,225.7z"/>
</g>
<g id="reflet_lunettes">
	<path class="st9" d="M242.2,235.1c5.4-0.7,10.8-3.3,16-7.8c0.6-0.3,1.2,0.4,0.9,1c-1,3.6-3.3,8.6-6.2,9.7
		c-2.9,0.5-6.6-0.3-10.5-1.5C241.8,236.3,241.6,235.4,242.2,235.1z"/>
	<path class="st9" d="M320.7,262.6c7.4-1.5,14.5-5,21.1-10.9c0.8-0.4,1.7,0.3,1.3,1c-1,4.2-3.6,10.1-7.5,11.7
		c-3.9,0.9-9.1,0.4-14.5-0.4C320.2,264,319.9,263,320.7,262.6z"/>
</g>
<g id="bouche_pepper">
	<path class="st2" d="M234.3,253.2c12.6,32.6,31.4,35.1,55.3,12.4c0.7-0.7,0.1-1.9-0.8-1.7c-19.7,3-37.4-0.8-52.9-11.9
		C235,251.5,234,252.3,234.3,253.2z"/>
</g>
<g id="main_pepper">
	<path class="st7" d="M121.9,266.8c0.9,2,2,3.9,3.1,5.5c2.4,3.4,6.1,5.7,10.3,6.3c18.2,2.8,27.8,4.1,29.7-6.8
		c0.1-4.2-1.4-5.2-4.9-7.1c6.1,2.2,8.9-1.6,10.8-7.2c0.1-1.9,1-3.9-3.7-7.6c8.7-2.1,9.3-9.2,6.6-13c-6.4-10.9-14.9-12.4-24.1-11.4
		c-0.6,0.1-1.2,0.2-1.8,0.4c-21.2,5.6-26.4,17-27.6,29.8C119.8,259.5,120.3,263.4,121.9,266.8z"/>
</g>
<g id="casuqette">
	<path class="st1" d="M199,188.8c3.4,5.8,33.9,10.4,65.7,21.2c35.1,11.9,63.2,24.4,73,21.5c22.2,8.5,26.7,12.1,24.8,26.5
		c12.8,1.5,23-7.5,21.7-25.2c-2.7-21.8-13.3-45.8-36.8-62.9c-3.4-5.6-14.1-11-21.8-13.8c-10.9-2.9-13.4-2.3-28.4,0
		c-21.4-3.2-35.6,0.2-57.2,12.4C208.7,160,192.2,176.5,199,188.8z"/>
</g>
<g id="ombre_casquette">
	<path class="st10" d="M240.1,168.3c0,0.6,46.7,25.7,60.6,27.3C295.7,192.1,246,171.9,240.1,168.3z"/>
	<path class="st10" d="M362.5,257.9c1.2-14.3-1.3-17.4-24.8-26.5c20.9,1.7,36.1,12.7,37,24.2C370.8,258.2,369.5,258.5,362.5,257.9z"
		/>
	<path class="st10" d="M342.6,179.3c0.9,17.8,6.6,15.3,4.1,6.6l-0.4,1.2c-0.2,0.7-1.2,0.7-1.4,0L342.6,179.3z"/>
	<path class="st10" d="M291,162.5c-12.4,15.8-15.5,10.2-7.7,3.6l-0.5,1.3c-0.3,0.7,0.5,1.3,1.1,0.8L291,162.5z"/>
	<path class="st10" d="M297.3,155.9c12.7,5.8,30.1,10.2,49,14C328.8,165.6,312.4,160.9,297.3,155.9z"/>
	<path class="st10" d="M327.1,200.8c26.5,1,30.2,17.5,10.6,30.6C352.5,218.6,353.6,207.7,327.1,200.8z"/>
</g>
</svg>
